<?xml version="1.0" encoding="UTF-8" standalone="no"?>
<!-- Created with Inkscape (http://www.inkscape.org/) -->

<svg
   version="1.1"
   id="svg1"
   width="933.33331"
   height="266.66666"
   viewBox="0 0 933.33331 266.66666"
   sodipodi:docname="celerity_logo_monochrome.svg"
   inkscape:version="1.3.2 (091e20ef0f, 2023-11-25, custom)"
   xmlns:inkscape="http://www.inkscape.org/namespaces/inkscape"
   xmlns:sodipodi="http://sodipodi.sourceforge.net/DTD/sodipodi-0.dtd"
   xmlns="http://www.w3.org/2000/svg"
   xmlns:svg="http://www.w3.org/2000/svg">
  <defs
     id="defs1" />
  <sodipodi:namedview
     id="namedview1"
     pagecolor="#1d1d1d"
     bordercolor="#000000"
     borderopacity="0.25"
     inkscape:showpageshadow="2"
     inkscape:pageopacity="0.0"
     inkscape:pagecheckerboard="false"
     inkscape:deskcolor="#d1d1d1"
     inkscape:zoom="1.7651786"
     inkscape:cx="184.96712"
     inkscape:cy="251.24936"
     inkscape:window-width="3840"
     inkscape:window-height="2128"
     inkscape:window-x="0"
     inkscape:window-y="32"
     inkscape:window-maximized="1"
     inkscape:current-layer="g1">
    <inkscape:page
       x="0"
       y="0"
       inkscape:label="1"
       id="page1"
       width="933.33331"
       height="266.66666"
       margin="0"
       bleed="0" />
  </sodipodi:namedview>
  <g
     id="g1"
     inkscape:groupmode="layer"
     inkscape:label="1">
    <path
       id="path1"
       style="fill:#030303;stroke-width:0.000874401;fill-opacity:1"
       d="M 121.27734 28.773438 C 110.9373 28.773438 101.04309 30.668541 91.908203 34.113281 L 120.99023 46.167969 L 150.36523 34.007812 C 141.30845 30.630321 131.51091 28.773438 121.27734 28.773438 z M 155.5957 36.171875 L 126.2168 48.333984 L 167.76562 65.554688 L 176.25391 57.066406 C 178.45657 54.86507 178.29264 51.276411 175.94727 49.232422 C 169.8765 43.943567 163.02239 39.536586 155.5957 36.171875 z M 86.388672 36.439453 C 68.365828 44.771006 53.826883 59.341876 45.552734 77.396484 L 74.355469 65.472656 L 86.388672 36.439453 z M 90.183594 37.728516 L 79.582031 63.310547 L 115.76367 48.332031 L 90.183594 37.728516 z M 120.99023 50.498047 L 77.416016 68.535156 L 59.359375 112.09961 L 77.396484 155.67188 L 120.96484 173.72852 L 164.81055 155.57812 L 164.04883 154.81641 C 162.10483 152.87214 158.99268 152.71026 156.88867 154.47852 C 147.25808 162.56916 134.83893 167.44141 121.27734 167.44141 C 89.36178 167.44141 63.750202 140.45 66.019531 108.04883 C 67.962199 80.354192 90.666423 58.124081 118.39453 56.71875 C 133.07678 55.974776 146.59106 60.951244 156.90039 69.615234 C 159.00039 71.38057 162.11078 71.20942 164.05078 69.269531 L 164.70312 68.617188 L 120.99023 50.498047 z M 72.189453 70.697266 L 46.605469 81.289062 L 57.197266 106.87305 L 72.189453 70.697266 z M 43.117188 83.318359 C 39.68712 92.648138 37.862612 102.75314 38.019531 113.30859 C 38.16197 122.91952 39.966077 132.15895 43.154297 140.75195 L 55.03125 112.09766 L 43.117188 83.318359 z M 57.193359 117.32422 L 46.591797 142.9043 L 72.171875 153.50586 L 57.193359 117.32422 z M 45.730469 146.87695 C 54.021263 164.69527 68.438795 179.17276 86.25 187.51562 L 74.335938 158.73242 L 45.730469 146.87695 z M 167.87305 158.64062 L 126.18945 175.89453 L 155.39648 188 C 162.90916 184.62008 169.83997 180.17844 175.9707 174.83398 C 178.30669 172.79799 178.44401 169.2097 176.25195 167.01758 L 167.87305 158.64062 z M 79.560547 160.89844 L 90.152344 186.48438 L 115.73828 175.89258 L 79.560547 160.89844 z M 120.96289 178.05859 L 92.125 189.99609 C 100.40148 193.11992 109.28757 194.97184 118.55273 195.26758 C 129.69181 195.62336 140.35643 193.78241 150.15625 190.1582 L 120.96289 178.05859 z " />
    <path
       id="path9"
       d="M 15.515241,-11.963867 H 4.9800844 v -9.035156 H 2.4605531 V 9.765625e-4 H 4.9800844 V -9.5732422 H 15.515241 V 9.765625e-4 h 2.519531 V -20.999023 H 15.515241 Z M 22.857037,9.765625e-4 h 2.519532 V -13.862305 H 22.857037 Z M 22.411725,-18.303711 c 0,0.9375 0.773437,1.710938 1.710937,1.710938 0.925782,0 1.710938,-0.773438 1.710938,-1.710938 0,-0.925781 -0.785156,-1.710937 -1.710938,-1.710937 -0.9375,0 -1.710937,0.785156 -1.710937,1.710937 z M 39.901959,0.17675781 c 0,3.12890629 -1.828125,4.74609379 -4.769531,4.74609379 -2.847656,0 -4.535156,-2.1914063 -4.535156,-2.1914063 l -1.523438,1.8867188 c 0,0 2.25,2.6484375 6.058594,2.6484375 4.019531,0 7.289063,-2.4023438 7.289063,-7.20703129 V -13.862305 h -2.308594 v 2.015625 c 0,0 -1.347656,-2.367187 -4.6875,-2.367187 -3.75,0 -6.714844,3.199219 -6.714844,7.2890623 0,4.078125 2.964844,7.28906251 6.714844,7.28906251 2.554687,0 3.996094,-1.47656251 4.476562,-2.09765621 z m 0,-4.50000001 c 0,0 -1.324218,2.34375 -4.078125,2.34375 -2.824218,0 -4.59375,-2.2148437 -4.59375,-4.9453125 0,-2.7304687 1.769532,-4.9570313 4.59375,-4.9570313 2.730469,0 4.078125,2.3437501 4.078125,2.3437501 z M 53.39903,-14.213867 c -2.402344,0 -3.65625,1.429687 -4.078125,2.039062 v -10.5 H 46.801373 V 9.765625e-4 h 2.519532 V -9.5380859 c 0,0 1.195312,-2.3437501 3.445312,-2.3437501 1.863281,0 3.339844,1.019531 3.339844,3.3984376 V 9.765625e-4 h 2.519531 V -8.9052734 c 0,-3.4218746 -2.460937,-5.3085936 -5.226562,-5.3085936 z m 8.124023,8.0976561 h 8.015625 V -8.5185547 H 61.523053 Z M 72.98985,9.765625e-4 h 2.519531 V -22.674805 H 72.98985 Z M 85.857037,-14.213867 c -4.171875,0 -6.925781,3.234375 -6.925781,7.2890623 0,4.1015625 3.023438,7.28906251 7.230469,7.28906251 3.65625,0 5.753906,-2.73046871 5.753906,-2.73046871 L 90.3336,-4.0185547 c 0,0 -1.441406,2.0390625 -4.171875,2.0390625 -2.613281,0 -4.617188,-1.9453125 -4.769531,-4.0546875 H 92.5836 c 0.02344,-0.328125 0.02344,-0.5390625 0.02344,-0.8085937 0,-4.4648436 -2.871093,-7.3710936 -6.75,-7.3710936 z m -4.40625,6.0820311 c 0.175782,-1.4414063 1.40625,-3.7500001 4.40625,-3.7500001 2.789063,0 4.207032,2.1914063 4.289063,3.7500001 z m 11.871094,-5.7304691 6.937499,14.46093781 6.92578,-14.46093781 h -2.57812 l -4.26563,9.3984378 -4.253904,-9.3984378 z m 21.512699,-0.351562 c -4.17188,0 -6.92578,3.234375 -6.92578,7.2890623 0,4.1015625 3.02343,7.28906251 7.23046,7.28906251 3.65625,0 5.75391,-2.73046871 5.75391,-2.73046871 l -1.58203,-1.6523438 c 0,0 -1.44141,2.0390625 -4.17188,2.0390625 -2.61328,0 -4.61718,-1.9453125 -4.76953,-4.0546875 h 11.19141 c 0.0234,-0.328125 0.0234,-0.5390625 0.0234,-0.8085937 0,-4.4648436 -2.8711,-7.3710936 -6.75,-7.3710936 z m -4.40625,6.0820311 c 0.17578,-1.4414063 1.40625,-3.7500001 4.40625,-3.7500001 2.78906,0 4.20703,2.1914063 4.28906,3.7500001 z m 14.57812,8.1328124625 h 2.51953 V -22.674805 h -2.51953 z M 157.44102,-18.151367 c 0,0 -2.61328,-3.210938 -7.53515,-3.210938 -6.0586,0 -10.38282,4.804688 -10.38282,10.863282 0,6.0585933 4.32422,10.86328081 10.38282,10.86328081 4.92187,0 7.76953,-3.45703121 7.76953,-3.45703121 l -1.71094,-1.734375 c 0,0 -2.25,2.7890625 -6.05859,2.7890625 -4.5586,0 -7.67579,-3.9960938 -7.67579,-8.4609371 0,-4.464844 3.11719,-8.460938 7.67579,-8.460938 3.84375,0 5.78906,2.460938 5.78906,2.460938 z m 15.60059,9.8085936 h -5.82422 v -5.8710936 h -2.28516 v 5.8710936 h -5.8125 v 2.2265625 h 5.8125 V 9.765625e-4 h 2.28516 V -6.1162109 h 5.82422 z m 15.60058,0 h -5.82422 v -5.8710936 h -2.28515 v 5.8710936 h -5.8125 v 2.2265625 h 5.8125 V 9.765625e-4 h 2.28515 V -6.1162109 h 5.82422 z m 9.83203,-3.2343746 h 2.88282 V 9.765625e-4 h 2.51953 V -11.577148 h 3.59765 v -2.285157 h -3.59765 v -4.617187 c 0,-1.347656 0.75,-2.214844 2.09765,-2.214844 0.78516,0 1.61719,0.539063 1.61719,0.539063 l 0.9375,-2.074219 c -1.20703,-0.65625 -2.09765,-0.808594 -2.91797,-0.808594 -1.96875,0 -4.2539,1.464844 -4.2539,4.40625 v 4.769531 h -2.88282 z m 17.43165,-2.636719 c -4.07813,0 -7.13672,3.199219 -7.13672,7.2890623 0,4.078125 3.05859,7.28906251 7.13672,7.28906251 4.07812,0 7.13671,-3.21093751 7.13671,-7.28906251 0,-4.0898433 -3.05859,-7.2890623 -7.13671,-7.2890623 z m 0,12.2343748 c -2.78907,0 -4.61719,-2.2148437 -4.61719,-4.9453125 0,-2.7304687 1.82812,-4.9570313 4.61719,-4.9570313 2.78906,0 4.61718,2.2265626 4.61718,4.9570313 0,2.7304688 -1.82812,4.9453125 -4.61718,4.9453125 z m 16.23339,-12.2343748 c -2.64843,0 -3.86718,2.484375 -3.86718,2.484375 v -2.132813 h -2.34375 V 9.765625e-4 h 2.51953 V -9.5380859 c 0,0 0.98437,-2.3437501 3.17578,-2.3437501 1.05469,0 1.59375,0.304688 1.59375,0.304688 l 0.92578,-2.285157 c 0,0 -0.86719,-0.351562 -2.00391,-0.351562 z M 242.84141,9.765625e-4 h 2.70703 L 247.73985,-5.6708984 h 9.05859 l 2.19141,5.6718749625 h 2.63672 L 253.43516,-20.999023 h -2.34375 z m 9.42188,-17.4023435625 3.60937,9.3281248 h -7.20703 z m 21.75586,13.4414061 c 0,0 -1.34766,1.9804687 -4.05469,1.9804687 -2.78906,0 -4.61719,-2.2148437 -4.61719,-4.9453125 0,-2.7304687 1.82813,-4.9570313 4.61719,-4.9570313 2.46094,0 3.80859,1.6875 3.80859,1.6875 l 1.71094,-1.535156 c 0,0 -1.98047,-2.484375 -5.51953,-2.484375 -4.07813,0 -7.13672,3.234375 -7.13672,7.2890623 0,4.078125 3.05859,7.28906251 7.13672,7.28906251 3.66797,0 5.67187,-2.67187501 5.67187,-2.67187501 z m 14.31152,0 c 0,0 -1.34766,1.9804687 -4.05469,1.9804687 -2.78906,0 -4.61718,-2.2148437 -4.61718,-4.9453125 0,-2.7304687 1.82812,-4.9570313 4.61718,-4.9570313 2.46094,0 3.8086,1.6875 3.8086,1.6875 l 1.71093,-1.535156 c 0,0 -1.98046,-2.484375 -5.51953,-2.484375 -4.07812,0 -7.13672,3.234375 -7.13672,7.2890623 0,4.078125 3.0586,7.28906251 7.13672,7.28906251 3.66797,0 5.67188,-2.67187501 5.67188,-2.67187501 z m 10.04297,-10.2539061 c -4.17188,0 -6.92578,3.234375 -6.92578,7.2890623 0,4.1015625 3.02344,7.28906251 7.23047,7.28906251 3.65625,0 5.7539,-2.73046871 5.7539,-2.73046871 l -1.58203,-1.6523438 c 0,0 -1.4414,2.0390625 -4.17187,2.0390625 -2.61328,0 -4.61719,-1.9453125 -4.76953,-4.0546875 h 11.1914 c 0.0234,-0.328125 0.0234,-0.5390625 0.0234,-0.8085937 0,-4.4648436 -2.87109,-7.3710936 -6.75,-7.3710936 z m -4.40625,6.0820311 c 0.17578,-1.4414063 1.40625,-3.7500001 4.40625,-3.7500001 2.78906,0 4.20703,2.1914063 4.28906,3.7500001 z m 14.58105,8.1328124625 h 2.51953 V -22.674805 h -2.51953 z M 321.4127,-14.213867 c -4.17187,0 -6.92578,3.234375 -6.92578,7.2890623 0,4.1015625 3.02344,7.28906251 7.23047,7.28906251 3.65625,0 5.75391,-2.73046871 5.75391,-2.73046871 l -1.58204,-1.6523438 c 0,0 -1.4414,2.0390625 -4.17187,2.0390625 -2.61328,0 -4.61719,-1.9453125 -4.76953,-4.0546875 h 11.1914 c 0.0234,-0.328125 0.0234,-0.5390625 0.0234,-0.8085937 0,-4.4648436 -2.87109,-7.3710936 -6.75,-7.3710936 z m -4.40625,6.0820311 c 0.17578,-1.4414063 1.40625,-3.7500001 4.40625,-3.7500001 2.78906,0 4.20703,2.1914063 4.28906,3.7500001 z m 20.25293,-6.0820311 c -2.64844,0 -3.86719,2.484375 -3.86719,2.484375 v -2.132813 h -2.34375 V 9.765625e-4 h 2.51953 V -9.5380859 c 0,0 0.98438,-2.3437501 3.17579,-2.3437501 1.05468,0 1.59375,0.304688 1.59375,0.304688 l 0.92578,-2.285157 c 0,0 -0.86719,-0.351562 -2.00391,-0.351562 z m 9.11426,0 c -3.02344,0 -5.19141,1.40625 -5.19141,1.40625 l 1.05469,2.097656 c 0,0 2.03906,-1.171875 4.13672,-1.171875 1.11328,0 3.51562,0.398438 3.51562,3.2695313 v 0.75 c 0,0 -1.61718,-1.1367187 -4.17187,-1.1367187 -3.11719,0 -5.48438,1.921875 -5.48438,4.6171875 0,3 2.66016,4.74609371 5.15625,4.74609371 3.15235,0 4.71094,-2.37890621 4.71094,-2.37890621 V 9.765625e-4 h 2.3086 V -9.1162109 c 0,-2.5781251 -1.95704,-5.0976561 -6.03516,-5.0976561 z m -0.44531,12.3515623 c -1.5586,0 -3.17578,-0.7148437 -3.17578,-2.5195312 0,-1.4414063 1.34765,-2.5195313 3.5039,-2.5195313 2.25,0 3.63281,0.9960938 3.63281,0.9960938 v 1.9453125 c 0,0 -1.5,2.0976562 -3.96093,2.0976562 z m 9.11425,-9.7148433 h 2.70704 v 7.5937496 c 0,3.05859371 2.1914,4.34765621 4.17187,4.34765621 0.80859,0 1.67578,-0.1875 2.87109,-0.84375 L 363.8668,-2.5537109 c 0,0 -0.80859,0.5742187 -1.59375,0.5742187 -1.34765,0 -2.0039,-0.7851562 -2.0039,-2.1328125 v -7.4648433 h 4.32422 v -2.285157 h -4.32422 v -4.230468 h -2.51953 v 4.230468 h -2.70704 z m 18.66211,-2.636719 c -4.07812,0 -7.13672,3.199219 -7.13672,7.2890623 0,4.078125 3.0586,7.28906251 7.13672,7.28906251 4.07813,0 7.13672,-3.21093751 7.13672,-7.28906251 0,-4.0898433 -3.05859,-7.2890623 -7.13672,-7.2890623 z m 0,12.2343748 c -2.78906,0 -4.61718,-2.2148437 -4.61718,-4.9453125 0,-2.7304687 1.82812,-4.9570313 4.61718,-4.9570313 2.78907,0 4.61719,2.2265626 4.61719,4.9570313 0,2.7304688 -1.82812,4.9453125 -4.61719,4.9453125 z m 16.23633,-12.2343748 c -2.64844,0 -3.86719,2.484375 -3.86719,2.484375 v -2.132813 h -2.34375 V 9.765625e-4 h 2.51954 V -9.5380859 c 0,0 0.98437,-2.3437501 3.17578,-2.3437501 1.05468,0 1.59375,0.304688 1.59375,0.304688 l 0.92578,-2.285157 c 0,0 -0.86719,-0.351562 -2.00391,-0.351562 z m 29.51953,-3.9375 c 0,0 -2.61328,-3.210938 -7.53515,-3.210938 -6.0586,0 -10.38282,4.804688 -10.38282,10.863282 0,6.0585933 4.32422,10.86328081 10.38282,10.86328081 4.92187,0 7.76953,-3.45703121 7.76953,-3.45703121 l -1.71094,-1.734375 c 0,0 -2.25,2.7890625 -6.05859,2.7890625 -4.5586,0 -7.67578,-3.9960938 -7.67578,-8.4609371 0,-4.464844 3.11718,-8.460938 7.67578,-8.460938 3.84375,0 5.78906,2.460938 5.78906,2.460938 z m 3.29883,18.1523435625 h 2.51953 V -22.674805 h -2.51953 z M 434.87364,0.36425781 c 3,0 4.26562,-2.49609371 4.26562,-2.49609371 V 9.765625e-4 h 2.33204 V -13.862305 h -2.51954 v 9.5976566 c 0,0 -1.10156,2.2851562 -3.44531,2.2851562 -1.86328,0 -3.32812,-1.0195312 -3.32812,-3.3867187 v -8.4960941 h -2.51953 v 8.9179691 c 0,3.4101562 2.46093,5.30859371 5.21484,5.30859371 z m 9.54199,-2.91796871 c 0,0 2.03906,2.91796871 5.94141,2.91796871 2.67187,0 5.48437,-1.38281251 5.48437,-4.05468751 0,-2.8242187 -2.25,-3.8085937 -4.88672,-4.3828125 -2.27343,-0.4804687 -3.36328,-1.0429687 -3.36328,-2.0976558 0,-0.902344 0.87891,-1.769532 2.64844,-1.769532 2.09766,0 3.48047,1.535157 3.48047,1.535157 l 1.64062,-1.710938 c 0,0 -1.85156,-2.097656 -5.12109,-2.097656 -3.09375,0 -5.10938,1.980469 -5.10938,3.984375 0,2.6132811 2.10938,3.7851561 5.07422,4.3828123 2.13282,0.421875 3.15235,1.0195313 3.15235,2.2148438 0,1.1132812 -1.59375,1.7109375 -3,1.7109375 -2.73047,0 -4.19532,-2.25 -4.19532,-2.25 z m 13.34766,-9.0234371 h 2.70703 v 7.5937496 c 0,3.05859371 2.1914,4.34765621 4.17187,4.34765621 0.8086,0 1.67578,-0.1875 2.8711,-0.84375 l -0.92578,-2.07421871 c 0,0 -0.8086,0.5742187 -1.59375,0.5742187 -1.34766,0 -2.00391,-0.7851562 -2.00391,-2.1328125 v -7.4648433 h 4.32422 v -2.285157 h -4.32422 v -4.230468 h -2.51953 v 4.230468 h -2.70703 z m 18.45117,-2.636719 c -4.17188,0 -6.92578,3.234375 -6.92578,7.2890623 0,4.1015625 3.02344,7.28906251 7.23047,7.28906251 3.65625,0 5.7539,-2.73046871 5.7539,-2.73046871 l -1.58203,-1.6523438 c 0,0 -1.4414,2.0390625 -4.17187,2.0390625 -2.61328,0 -4.61719,-1.9453125 -4.76953,-4.0546875 h 11.1914 c 0.0234,-0.328125 0.0234,-0.5390625 0.0234,-0.8085937 0,-4.4648436 -2.87109,-7.3710936 -6.75,-7.3710936 z m -4.40625,6.0820311 c 0.17578,-1.4414063 1.40625,-3.7500001 4.40625,-3.7500001 2.78906,0 4.20703,2.1914063 4.28906,3.7500001 z m 20.25293,-6.0820311 c -2.64844,0 -3.86719,2.484375 -3.86719,2.484375 v -2.132813 H 485.8502 V 9.765625e-4 h 2.51953 V -9.5380859 c 0,0 0.98438,-2.3437501 3.17578,-2.3437501 1.05469,0 1.59375,0.304688 1.59375,0.304688 l 0.92579,-2.285157 c 0,0 -0.86719,-0.351562 -2.00391,-0.351562 z m 2.72754,11.6601561 c 0,0 2.03906,2.91796871 5.9414,2.91796871 2.67188,0 5.48438,-1.38281251 5.48438,-4.05468751 0,-2.8242187 -2.25,-3.8085937 -4.88672,-4.3828125 -2.27344,-0.4804687 -3.36328,-1.0429687 -3.36328,-2.0976558 0,-0.902344 0.87891,-1.769532 2.64844,-1.769532 2.09765,0 3.48047,1.535157 3.48047,1.535157 l 1.64062,-1.710938 c 0,0 -1.85156,-2.097656 -5.12109,-2.097656 -3.09375,0 -5.10938,1.980469 -5.10938,3.984375 0,2.6132811 2.10938,3.7851561 5.07422,4.3828123 2.13281,0.421875 3.15234,1.0195313 3.15234,2.2148438 0,1.1132812 -1.59375,1.7109375 -3,1.7109375 -2.73046,0 -4.19531,-2.25 -4.19531,-2.25 z m 0,0"
       style="fill:#030303;fill-opacity:1;fill-rule:nonzero;stroke:none"
       aria-label="High-level C++ for Accelerator Clusters"
       transform="matrix(1.3333333,0,0,1.3333333,108.5552,238.66667)" />
    <path
       id="path10"
       d="m 2514.26,1442.05 c 0,0 -96.19,121.35 -285.62,121.35 -224.97,0 -378.88,-196.83 -378.88,-417.34 0,-220.509 153.91,-417.349 378.88,-417.349 187.94,0 298.94,137.641 298.94,137.641 l 84.36,-85.84 c 0,0 -140.6,-170.192 -383.3,-170.192 -298.96,0 -512.07,236.789 -512.07,535.74 0,298.95 213.11,535.74 512.07,535.74 242.7,0 371.46,-158.35 371.46,-158.35"
       style="fill:#030303;fill-opacity:1;fill-rule:nonzero;stroke:none"
       transform="matrix(0.13333333,0,0,-0.13333333,0,266.66667)" />
    <path
       id="path11"
       d="m 3242.42,1030 c -4.44,76.96 -73.99,185 -211.63,185 -148,0 -208.67,-113.96 -217.56,-185 z m 121.36,-60.039 c 0,-13.32 0,-23.68 -1.49,-39.961 h -552.02 c 7.4,-103.602 106.56,-199.789 235.31,-199.789 134.68,0 205.72,100.629 205.72,100.629 l 78.43,-81.399 c 0,0 -103.59,-134.671 -284.15,-134.671 -207.18,0 -356.66,156.878 -356.66,359.628 0,199.792 136.16,359.622 341.87,359.622 190.91,0 332.99,-143.55 332.99,-364.059"
       style="fill:#030303;fill-opacity:1;fill-rule:nonzero;stroke:none"
       transform="matrix(0.13333333,0,0,-0.13333333,0,266.66667)" />
    <path
       id="path12"
       d="m 3530,630 h 120 v 1120 h -120 z"
       style="fill:#030303;fill-opacity:1;fill-rule:nonzero;stroke:none"
       transform="matrix(0.13333333,0,0,-0.13333333,0,266.66667)" />
    <path
       id="path13"
       d="m 4379.02,1030 c -4.44,76.96 -73.99,185 -211.63,185 -148,0 -208.67,-113.96 -217.56,-185 z m 121.36,-60.039 c 0,-13.32 0,-23.68 -1.49,-39.961 h -552.01 c 7.39,-103.602 106.55,-199.789 235.3,-199.789 134.68,0 205.72,100.629 205.72,100.629 l 78.43,-81.399 c 0,0 -103.59,-134.671 -284.15,-134.671 -207.18,0 -356.66,156.878 -356.66,359.628 0,199.792 136.16,359.622 341.87,359.622 190.91,0 332.99,-143.55 332.99,-364.059"
       style="fill:#030303;fill-opacity:1;fill-rule:nonzero;stroke:none"
       transform="matrix(0.13333333,0,0,-0.13333333,0,266.66667)" />
    <path
       id="path14"
       d="m 5047.97,1311.81 -45.88,-112.48 c 0,0 -26.64,14.8 -78.44,14.8 C 4815.62,1214.13 4760,1098.7 4760,1098.7 V 630.004 H 4640 V 1310 h 120 v -103.26 c -2.1,0 58.58,122.83 188.81,122.83 56.24,0 99.16,-17.76 99.16,-17.76"
       style="fill:#030303;fill-opacity:1;fill-rule:nonzero;stroke:none"
       transform="matrix(0.13333333,0,0,-0.13333333,0,266.66667)" />
    <path
       id="path15"
       d="m 5170,1310 h 120 V 630 h -120 z m 60.01,305.21 c 45.88,0 84.36,-38.49 84.36,-84.37 0,-45.87 -38.48,-84.35 -84.36,-84.35 -45.88,0 -84.36,38.48 -84.36,84.35 0,45.88 38.48,84.37 84.36,84.37"
       style="fill:#030303;fill-opacity:1;fill-rule:nonzero;stroke:none"
       transform="matrix(0.13333333,0,0,-0.13333333,0,266.66667)" />
    <path
       id="path16"
       d="m 5450,1310 h 130 v 210 h 120 v -210 h 210 V 1200 H 5700 V 831.488 c 0,-66.59 31.43,-105.066 95.71,-105.066 37.15,0 75.73,28.117 75.73,28.117 l 44.27,-102.117 c -57.14,-32.563 -98.56,-41.442 -137.14,-41.442 -94.28,0 -198.57,63.641 -198.57,214.59 V 1200 h -130"
       style="fill:#030303;fill-opacity:1;fill-rule:nonzero;stroke:none"
       transform="matrix(0.13333333,0,0,-0.13333333,0,266.66667)" />
    <path
       id="path17"
       d="m 6058.78,419.07 c 0,0 42.92,-35.519 81.41,-35.519 54.75,0 79.91,38.48 106.55,105.082 L 6300.02,623.301 5980.34,1310 h 140.6 L 6360.69,769.82 6564.92,1310 h 134.68 c 0,0 -343.35,-864.289 -359.63,-904.246 -39.95,-99.16 -116.91,-137.641 -189.43,-137.641 -84.36,0 -145.03,48.84 -145.03,48.84"
       style="fill:#030303;fill-opacity:1;fill-rule:nonzero;stroke:none"
       transform="matrix(0.13333333,0,0,-0.13333333,0,266.66667)" />
  </g>
</svg>
