<svg xmlns="http://www.w3.org/2000/svg" xmlns:xlink="http://www.w3.org/1999/xlink" data-name="Layer 1" width="900.18" height="731.683" viewBox="0 0 900.18 731.683"><defs><linearGradient id="a" x1="205.5" y1="458.72" x2="205.5" gradientUnits="userSpaceOnUse"><stop offset="0" stop-color="gray" stop-opacity=".25"/><stop offset=".54" stop-color="gray" stop-opacity=".12"/><stop offset="1" stop-color="gray" stop-opacity=".1"/></linearGradient><linearGradient id="b" x1="347.94" y1="120.14" x2="347.94" y2="40.02" xlink:href="#a" gradientTransform="translate(3 3)"/><linearGradient id="c" x1="347.94" y1="269.14" x2="347.94" y2="189.02" xlink:href="#a" gradientTransform="translate(3 3)"/><linearGradient id="d" x1="347.94" y1="417.14" x2="347.94" y2="337.02" xlink:href="#a" gradientTransform="translate(3 3)"/><linearGradient xlink:href="#a" id="e" x1="347.94" y1="120.14" x2="347.94" y2="40.02" gradientTransform="translate(486.18 269.963)"/><linearGradient xlink:href="#a" id="f" x1="347.94" y1="269.14" x2="347.94" y2="189.02" gradientTransform="translate(486.18 269.963)"/><linearGradient xlink:href="#a" id="g" x1="347.94" y1="417.14" x2="347.94" y2="337.02" gradientTransform="translate(486.18 269.963)"/></defs><path fill="#737373" d="M3 3h411v458.72H3z"/><path d="M9.79 309.27H407.2v142.46H9.79z"/><circle cx="350.94" cy="379.09" r="37.16" fill="#f58b69"/><path d="M9.79 161.26H407.2v142.46H9.79z"/><circle cx="350.94" cy="231.09" r="37.16" fill="#f58b69"/><path d="M9.79 13.25H407.2v142.46H9.79z"/><circle cx="350.94" cy="83.08" r="40.06" fill="url(#b)"/><circle cx="350.94" cy="232.08" r="40.06" fill="url(#c)"/><circle cx="350.94" cy="380.08" r="40.06" fill="url(#d)"/><circle cx="350.94" cy="83.08" r="37.16" fill="#f58b69"/><path fill="#e98470" d="M42.41 343.06h15.4v73h-15.4z"/><path d="M72.81 343.06h15.4v73h-15.4z" fill="#d8787b"/><path d="M103.22 343.06h15.4v73h-15.4z" fill="#c26e86"/><path d="M133.62 343.06h15.4v73h-15.4z" fill="#a66c90"/><path d="M164.02 343.06h15.4v73h-15.4z" fill="#8c6a99"/><path d="M194.42 343.06h15.4v73h-15.4z" fill="#7068a3"/><path d="M224.83 343.06h15.4v73h-15.4z" fill="#5767ac"/><path fill="#e98470" d="M42.41 195.05h15.4v73h-15.4z"/><path d="M72.81 195.05h15.4v73h-15.4z" fill="#d8787b"/><path d="M103.22 195.05h15.4v73h-15.4z" fill="#c26e86"/><path d="M133.62 195.05h15.4v73h-15.4z" fill="#a66c90"/><path d="M164.02 195.05h15.4v73h-15.4z" fill="#8c6a99"/><path d="M194.42 195.05h15.4v73h-15.4z" fill="#7068a3"/><path d="M224.83 195.05h15.4v73h-15.4z" fill="#5767ac"/><path fill="#e98470" d="M42.41 47.05h15.4v73h-15.4z"/><path d="M72.81 47.05h15.4v73h-15.4z" fill="#d8787b"/><path d="M103.22 47.05h15.4v73h-15.4z" fill="#c26e86"/><path d="M133.62 47.05h15.4v73h-15.4z" fill="#a66c90"/><path d="M164.02 47.05h15.4v73h-15.4z" fill="#8c6a99"/><path d="M194.42 47.05h15.4v73h-15.4z" fill="#7068a3"/><path d="M224.83 47.05h15.4v73h-15.4z" fill="#5767ac"/><path fill="#737373" d="M486.18 269.963h411v458.72h-411z"/><path d="M492.97 576.233h397.41v142.46H492.97z"/><circle cx="834.12" cy="646.053" r="37.16" fill="#f58b69"/><path d="M492.97 428.223h397.41v142.46H492.97z"/><circle cx="834.12" cy="498.053" r="37.16" fill="#f58b69"/><path d="M492.97 280.213h397.41v142.46H492.97z"/><circle cx="834.12" cy="350.043" r="40.06" fill="url(#e)"/><circle cx="834.12" cy="499.043" r="40.06" fill="url(#f)"/><circle cx="834.12" cy="647.043" r="40.06" fill="url(#g)"/><circle cx="834.12" cy="350.043" r="37.16" fill="#f58b69"/><path fill="#e98470" d="M525.59 610.023h15.4v73h-15.4z"/><path d="M555.99 610.023h15.4v73h-15.4z" fill="#d8787b"/><path d="M586.4 610.023h15.4v73h-15.4z" fill="#c26e86"/><path d="M616.8 610.023h15.4v73h-15.4z" fill="#a66c90"/><path d="M647.2 610.023h15.4v73h-15.4z" fill="#8c6a99"/><path d="M677.6 610.023H693v73h-15.4z" fill="#7068a3"/><path d="M708.01 610.023h15.4v73h-15.4z" fill="#5767ac"/><path fill="#e98470" d="M525.59 462.013h15.4v73h-15.4z"/><path d="M555.99 462.013h15.4v73h-15.4z" fill="#d8787b"/><path d="M586.4 462.013h15.4v73h-15.4z" fill="#c26e86"/><path d="M616.8 462.013h15.4v73h-15.4z" fill="#a66c90"/><path d="M647.2 462.013h15.4v73h-15.4z" fill="#8c6a99"/><path d="M677.6 462.013H693v73h-15.4z" fill="#7068a3"/><path d="M708.01 462.013h15.4v73h-15.4z" fill="#5767ac"/><path fill="#e98470" d="M525.59 314.013h15.4v73h-15.4z"/><path d="M555.99 314.013h15.4v73h-15.4z" fill="#d8787b"/><path d="M586.4 314.013h15.4v73h-15.4z" fill="#c26e86"/><path d="M616.8 314.013h15.4v73h-15.4z" fill="#a66c90"/><path d="M647.2 314.013h15.4v73h-15.4z" fill="#8c6a99"/><path d="M677.6 314.013H693v73h-15.4z" fill="#7068a3"/><path d="M708.01 314.013h15.4v73h-15.4z" fill="#5767ac"/><path d="M444.815 158.96H686.01v86.852" fill="none" stroke="#000" stroke-width="5" stroke-dasharray="15,15"/><path d="M464.955 139.699H706.15v86.852M444.815 592.697H203.621v-86.853" fill="none" stroke="#000" stroke-width="5" stroke-dasharray="15,15"/><path d="M464.955 573.436H223.761v-86.852" fill="none" stroke="#000" stroke-width="5" stroke-dasharray="15,15"/></svg>