<svg xmlns="http://www.w3.org/2000/svg" data-name="Layer 1" width="900.18" height="731.683" viewBox="0 0 900.18 731.683"><path d="M576.925 476.073c-50.24 27.84-121.33 47.1-202.49 47.1-146.23 0-264.78-58-264.78-153 0-101 118.55-156.66 264.78-156.66 81.46 0 152.87 15.72 203.11 43-54.84-45.67-153.16-86.58-265.58-86.6-172.18-.07-311.79 89.62-311.79 200.22 0 100.37 139.55 192.81 311.73 192.84 111.97.02 210.04-40.29 265.02-86.9z" class="cls-1" fill="#f35a1c"/><g style="isolation:isolate" class="cls-2"><path d="M870.245 441.843h-7.37v19.1h-6.4v-19.1h-7.35v-5.52h21.11v5.52zm2.86-5.54h9.45l4.24 16.42h.08l4.24-16.42h9.45v24.64h-6v-18.7h-.07l-5.17 18.7h-4.9l-5.18-18.7h-.07v18.7h-6v-24.64z" class="cls-1" fill="#f35a1c"/></g><path d="M214.745 397.583q0 9.59 3.47 16.25a30.26 30.26 0 009.19 10.79 39.8 39.8 0 0013.47 6.13 63.62 63.62 0 0016 2 83.29 83.29 0 0012-.93 41.74 41.74 0 0012-3.6 26.15 26.15 0 009.33-7.33q3.67-4.66 3.67-11.85a16.69 16.69 0 00-4.93-12.52 39.1 39.1 0 00-12.93-8 129.06 129.06 0 00-18.12-5.6q-10.13-2.4-20.52-5.33a182.34 182.34 0 01-20.79-6.53 71.44 71.44 0 01-18.12-10 47.06 47.06 0 01-12.92-15.32q-4.93-9.19-4.93-22.25 0-14.66 6.26-25.45a56.74 56.74 0 0116.39-18 71.4 71.4 0 0122.92-10.66 97.49 97.49 0 0125.58-3.46 121 121 0 0128.65 3.33 71.46 71.46 0 0124.38 10.79 54.58 54.58 0 0116.92 19.05q6.26 11.59 6.26 28.11h-40.5a33.64 33.64 0 00-3.6-14.12 23.55 23.55 0 00-8.13-8.79 34.38 34.38 0 00-11.59-4.53 71.73 71.73 0 00-14.28-1.31 48.73 48.73 0 00-10.13 1.07 27 27 0 00-9.19 3.73 23.14 23.14 0 00-6.8 6.66 17.89 17.89 0 00-2.66 10.13 17.1 17.1 0 002.13 9.06q2.13 3.46 8.39 6.4a107.28 107.28 0 0017.32 5.86q11.11 2.92 28.94 7.48 5.33 1.07 14.79 3.86a70.9 70.9 0 0118.79 8.93 56.79 56.79 0 0116.12 16.39q6.8 10.26 6.8 26.25a58.12 58.12 0 01-5.06 24.25 52.68 52.68 0 01-15.04 19.32q-10 8.13-24.78 12.66-14.78 4.53-34.24 4.53a120.19 120.19 0 01-30.51-3.86 76.74 76.74 0 01-26.12-12.12 59.89 59.89 0 01-18-21.05q-6.66-12.79-6.4-30.38h40.5zm180.13-10.93l-69.81-116.18h46.9l44.5 75.15 44.24-75.15h46.63l-70.62 117.25v73h-41.84zm241.7-52.23a34.15 34.15 0 00-4.8-13.19 42.05 42.05 0 00-9.33-10.53 43 43 0 00-12.66-7.06 43.55 43.55 0 00-14.79-2.53q-14.12 0-24 5.46a45.28 45.28 0 00-16 14.66 64.22 64.22 0 00-8.93 20.92 104.06 104.06 0 00-2.8 24.25 96.82 96.82 0 002.8 23.32 63 63 0 008.93 20.39 45.75 45.75 0 0016 14.52q9.86 5.46 24 5.46 19.19 0 30-11.72 10.81-11.72 13.19-30.91h40.51a96.68 96.68 0 01-8.26 32.24 77.24 77.24 0 01-17.56 24.51 74.74 74.74 0 01-25.58 15.46 93.71 93.71 0 01-32.24 5.33q-21.85 0-39.31-7.59a84.22 84.22 0 01-29.45-20.92 92.56 92.56 0 01-18.42-31.32 114.92 114.92 0 01-6.4-38.77 118.88 118.88 0 016.4-39.56 95 95 0 0118.39-31.84 84.06 84.06 0 0129.45-21.32q17.46-7.73 39.31-7.73a95.87 95.87 0 0129.71 4.53 80.46 80.46 0 0125 13.19 71.28 71.28 0 0118.25 21.45 76.69 76.69 0 019.06 29.31h-40.47zm57.03-63.95h41.84v155.09h92.73v35.18h-134.57z" class="cls-1" fill="#f35a1c"/></svg>