<svg xmlns="http://www.w3.org/2000/svg" width="252.44" height="140.81" viewBox="0 0 252.44 140.81"><path d="M204.48 124.36a39.34 39.34 0 0022.74-6.7 38.69 38.69 0 0012.32-12.92 41.67 41.67 0 005.56-17l7.34-77.23h-37s-10.94 113.82-10.93 113.82m-35.06-87.92l-5 52.08c-.93 12.46 3.75 18.86 6.65 22.24 5.32 6.16 15.08 11 26.36 13 .31-3.31 10-104.11 10-104.13A18.1 18.1 0 00202.85 6a18.37 18.37 0 00-12.44-6h-88.54C95.21 0 85.2 6.77 85.2 17.92c0 13.77 12.24 18.5 16.45 18.5h67.8" fill="#c50e1f"/><path d="M117.89 113.89h33l6.75-70.07h-33s-5.89 61-6.75 70.06" fill="#c50e1f"/><path d="M228.33 72.74c-.2 2.07 2.08 3.18 4.23 3.18h3.94a6.92 6.92 0 00.46-2c.21-2.2-1-3.7-4.41-3.7-2.55-.01-4.05.78-4.22 2.52zm10.78 1.38a17.75 17.75 0 01-1 4.57h-18.34l.26-2.77h5.87a12.4 12.4 0 012.41.23v-.05a3.84 3.84 0 01-2.2-4.09c.3-3.05 2.61-4.73 6.45-4.73 4.41 0 7 2.57 6.54 6.84m-9.71-14.81c-.14 1.55.9 2.64 2.65 2.87l.52-5.45a2.82 2.82 0 00-3.17 2.58zm5.32-5.24l-.78 8.17c2.89.08 4.29-1.16 4.54-3.8a9.22 9.22 0 00-.39-3.7l2.16-.36a12.52 12.52 0 01.39 4.55c-.39 4-2.65 6.15-7.13 6.15-3.82 0-6.5-2.2-6.14-5.93s2.91-5.19 5.8-5.19a12.91 12.91 0 011.55.1m-3.21-9.75c-.73 2.55.92 3.8 4.74 3.8h5.17l-.27 2.77h-12.73l.26-2.64a16.72 16.72 0 012.79.26v-.05c-1.66-.57-3.12-1.86-2.63-4.27l2.67.14m10.5-2.51h-18.7l.26-2.76h18.7l-.26 2.76m.65-6.55h-12.73l.26-2.77h12.74zm-14.85-1.41a2 2 0 01-1.89 1.78 1.57 1.57 0 01-1.55-1.78 2 2 0 011.89-1.76 1.56 1.56 0 011.55 1.76m16.25-13.17h-8.17c-1.59 0-2.58.43-2.72 1.91-.19 1.94 1.7 3.36 4.26 3.36h6.12l-.26 2.76h-12.73l.25-2.63a16.14 16.14 0 012.49.18 4.21 4.21 0 01-2.29-4.5c.28-2.92 2.21-3.83 4.44-3.83h8.91l-.26 2.74" fill="#fff"/><path d="M11.24 74.32L10 87.27H7.57l1.24-13H4.7l.2-2h10.67l-.2 2h-4.13m8.54 3.52a2.89 2.89 0 00-2.71 2.53h4.69c.24-1.56-.58-2.53-1.98-2.53zM23.89 82h-7c-.31 2.51.65 3.62 2.92 3.62a8.78 8.78 0 003.19-.68l.13 1.84a11.56 11.56 0 01-4 .71c-3.4 0-5.11-1.77-4.74-5.66.32-3.31 2.45-5.82 5.65-5.82s4.26 2.09 4 4.6a10.15 10.15 0 01-.15 1.39m6.38 5.45c-2.85 0-4.78-1.4-4.4-5.33.34-3.51 2.38-6.07 6.07-6.07a6.9 6.9 0 012.54.43l-.6 2a6 6 0 00-2.26-.48c-1.87 0-3 1.56-3.24 3.82-.19 2 .37 3.56 2.55 3.56a5.9 5.9 0 002.43-.49l.16 2a9.1 9.1 0 01-3.25.56m12.34-.18l.68-7.08c.13-1.38-.16-2.2-1.43-2.2-1.67 0-3.06 1.75-3.27 4l-.51 5.31H35.7l1.56-16.21h2.38l-.48 5a10.76 10.76 0 01-.42 2.22 4.42 4.42 0 014-2.31c2.51 0 3.14 1.6 3 3.53L45 87.27h-2.39m12.53 0l.68-7.08c.13-1.38-.17-2.2-1.43-2.2-1.67 0-3.06 1.75-3.28 4l-.51 5.31h-2.37l1.06-11h2.27a15.52 15.52 0 01-.37 2.18 4.53 4.53 0 014.1-2.48c2.51 0 3.13 1.6 3 3.53l-.75 7.73h-2.4m8.05-12.98a1.34 1.34 0 01-1.39-1.49 1.71 1.71 0 011.68-1.49 1.36 1.36 0 011.37 1.49 1.71 1.71 0 01-1.66 1.49zm-2.45 13l1.06-11h2.38l-1.06 11h-2.38m7.5.21a9 9 0 01-2.41-.31l.37-2a6.6 6.6 0 002.38.42c1.25 0 2.17-.55 2.25-1.44.22-2.27-4.76-.89-4.39-4.71.19-1.93 1.8-3.42 4.84-3.42a10.84 10.84 0 012.07.22L73 78.14a6.89 6.89 0 00-2-.31c-1.31 0-2 .53-2.06 1.38-.21 2.17 4.79 1 4.43 4.69-.2 2.08-2.16 3.59-5.1 3.59m11.52-.04c-2.84 0-4.77-1.4-4.39-5.33.33-3.51 2.38-6.07 6.07-6.07a6.81 6.81 0 012.53.43l-.59 2a6 6 0 00-2.27-.48c-1.86 0-3 1.56-3.23 3.82-.2 2 .37 3.56 2.55 3.56a5.85 5.85 0 002.42-.49l.17 2a9.15 9.15 0 01-3.26.56m12.35-.18l.68-7.08c.13-1.38-.17-2.2-1.43-2.2-1.67 0-3.06 1.75-3.27 4l-.52 5.31h-2.37l1.56-16.21h2.38l-.49 5a10.75 10.75 0 01-.41 2.22 4.42 4.42 0 014-2.31c2.51 0 3.13 1.6 2.95 3.53l-.75 7.73h-2.33m10.57-9.47a2.89 2.89 0 00-2.71 2.53h4.69c.2-1.56-.58-2.53-1.98-2.53zm4.11 4.21h-7c-.31 2.51.65 3.62 2.92 3.62a8.82 8.82 0 003.24-.64l.13 1.84a11.56 11.56 0 01-4 .71c-3.4 0-5.12-1.77-4.74-5.66.32-3.35 2.45-5.87 5.63-5.87s4.26 2.09 4 4.6a10.15 10.15 0 01-.22 1.35M5.24 114.15c-4.71 0-5.46-2.57-5.19-5.33l1-9.88h2.37l-.93 9.7c-.2 2 .32 3.51 3.1 3.51 2.45 0 3.66-1 3.92-3.82l.91-9.39h2.38l-.89 9.22c-.39 4-2.73 6-6.67 6m16.35-.23l.68-7.08c.13-1.38-.17-2.2-1.43-2.2-1.67 0-3.06 1.75-3.28 4l-.51 5.31h-2.37l1.06-11H18a15.52 15.52 0 01-.37 2.18 4.53 4.53 0 014.08-2.4c2.51 0 3.13 1.6 3 3.53l-.75 7.73h-2.37m8.05-13.06a1.34 1.34 0 01-1.39-1.49A1.71 1.71 0 0129.93 98a1.35 1.35 0 011.37 1.49 1.71 1.71 0 01-1.66 1.45zm-2.45 13l1.06-11h2.38l-1.06 11h-2.38m10.81-.01h-2.39l-3.07-11h2.62l1.51 5.84c.17.76.36 1.54.49 2.27.25-.69.57-1.47.86-2.18l2.68-5.93h2.55l-5.24 11m10.85-9.48a2.87 2.87 0 00-2.71 2.55h4.69c.16-1.58-.58-2.55-1.98-2.55zm4.14 4.17h-7c-.3 2.51.66 3.62 2.92 3.62a8.78 8.78 0 003.24-.64l.14 1.84a11.61 11.61 0 01-4 .71c-3.4 0-5.12-1.77-4.75-5.66.32-3.31 2.45-5.82 5.65-5.82s4.27 2.09 4 4.6a12.09 12.09 0 01-.22 1.35m8.73-3.62c-2.16-.42-3.37 1.11-3.69 4.42l-.43 4.49h-2.38l1.06-11h2.27a15 15 0 01-.46 2.44 3.81 3.81 0 013.93-2.64l-.3 2.29m3.41 9.15a9 9 0 01-2.41-.31l.37-2a6.6 6.6 0 002.38.42c1.25 0 2.17-.55 2.25-1.44.22-2.27-4.76-.89-4.39-4.71.19-1.93 1.8-3.42 4.84-3.42a10.84 10.84 0 012.07.22l-.32 1.91a6.84 6.84 0 00-2.06-.31c-1.31 0-2 .53-2.06 1.38-.21 2.17 4.79 1 4.44 4.69-.21 2.08-2.17 3.59-5.11 3.59m9.7-13.23a1.34 1.34 0 01-1.39-1.49A1.71 1.71 0 0175.11 98a1.35 1.35 0 011.37 1.49 1.71 1.71 0 01-1.66 1.45zm-2.45 13l1.06-11h2.38l-1.06 11h-2.38m9.43.19c-2.36 0-3-.91-2.74-3.37l.58-6h-2.12l.18-1.85h2.11l.34-3.51 2.44-.64-.4 4.15h2.89l-.18 1.85H82l-.5 5.24c-.15 1.65.14 2.09 1.25 2.09a6.44 6.44 0 001.37-.16v1.91a11.17 11.17 0 01-2.33.27M94.1 100.8a1.2 1.2 0 01-1.22-1.35 1.51 1.51 0 011.48-1.33 1.19 1.19 0 011.21 1.33 1.51 1.51 0 01-1.47 1.35zm-4.37 0a1.19 1.19 0 01-1.21-1.35A1.5 1.5 0 0190 98.12a1.19 1.19 0 011.22 1.33 1.51 1.51 0 01-1.49 1.35zm3.11 8.07c-3.29 0-4.29.89-4.39 1.93a1.29 1.29 0 001.37 1.49 3.33 3.33 0 003-3.13zm-.33 5.06a14.84 14.84 0 01.31-2 4.31 4.31 0 01-3.88 2.28 2.6 2.6 0 01-2.79-3.06c.23-2.49 2.83-3.82 6.87-3.82l.05-.47c.15-1.55-.34-2.29-2-2.29a9.59 9.59 0 00-3.41.78l-.24-1.84a12 12 0 014.16-.78c3.22 0 4.08 1.47 3.85 3.86l-.43 4.32c-.09 1-.18 2.09-.22 3h-2.27m9.23.22c-2.35 0-3-.91-2.74-3.37l.58-6h-2.11l.18-1.85h2.11l.34-3.51 2.44-.64-.4 4.15H105l-.18 1.85H102l-.51 5.28c-.16 1.65.13 2.09 1.24 2.09a6.53 6.53 0 001.38-.16v1.91a11.18 11.18 0 01-2.34.27m-48.35 13.29H51.6l-.43 4.56h1.28c2.25 0 3.38-.91 3.52-2.42.12-1.25-.48-2.14-2.55-2.14zm-1.1 6.33h-1.33l-.46 4.8c.37 0 1.19.11 1.76.11 2.2 0 3.33-1.09 3.47-2.55.16-1.67-1.19-2.36-3.44-2.36zm-.32 6.89c-1 0-2.39 0-4.06-.07l1.45-15c1.18 0 2.85-.07 4.67-.07 3.2 0 4.76 1.33 4.53 3.64a4 4 0 01-2.77 3.42 3 3 0 012.56 3.42c-.21 2.15-2 4.6-6.38 4.6m13.78-9.49a2.89 2.89 0 00-2.71 2.53h4.69c.24-1.56-.58-2.53-1.98-2.53zm4.11 4.17h-7c-.31 2.51.65 3.62 2.91 3.62a8.78 8.78 0 003.24-.64l.14 1.84a11.56 11.56 0 01-4 .71c-3.4 0-5.12-1.77-4.74-5.66.31-3.31 2.44-5.82 5.64-5.82s4.27 2.09 4 4.6a12.09 12.09 0 01-.22 1.35m8.77-3.6c-2.16-.42-3.37 1.11-3.69 4.42l-.43 4.49h-2.38l1.06-11h2.27A15.34 15.34 0 0175 132a3.79 3.79 0 014-2.65l-.34 2.33m1.28 8.91l1.56-16.22h2.38l-1.56 16.22h-2.38M88 127.6a1.34 1.34 0 01-1.39-1.49 1.71 1.71 0 011.68-1.49 1.34 1.34 0 011.36 1.49A1.7 1.7 0 0188 127.6zm-2.45 13l1.06-11H89l-1.06 11h-2.35m12.54-.01l.68-7.09c.14-1.37-.16-2.19-1.43-2.19-1.67 0-3.06 1.75-3.27 4l-.51 5.31h-2.38l1.06-11h2.27a14.2 14.2 0 01-.37 2.18 4.53 4.53 0 014.07-2.4c2.51 0 3.14 1.6 3 3.53l-.74 7.73h-2.38" fill="#c50e1f"/></svg>