<svg xmlns="http://www.w3.org/2000/svg" width="351.08" height="140.81" viewBox="0 0 351.08 140.81"><path fill="#003263" d="M0 23.83v43.38h43.89V23.33H0v.5z"/><path fill="none" stroke="#fff" stroke-width=".665" d="M0 23.83v43.38h43.89V23.33H0v.5h0z"/><path fill="#f7941d" d="M0 71.05v43.37h43.88V70.55H0v.5z"/><path fill="none" stroke="#fff" stroke-width=".669" d="M0 71.05v43.37h43.88V70.55H0v.5h0z"/><path fill="#003263" d="M298.85 113.89h5.5V98.55l13.33 15.34h7.89l-15.61-16.63 13.86-13.23h-7.49l-11.98 12.12V71.13h-5.5v42.76zm-120.16 0H184v-4.21h.12c1.46 2.23 4.86 4.92 10.18 4.92 9 0 12.8-8 12.8-16.14 0-8-4.21-15.09-12.86-15.09-5.21 0-8.19 2-9.88 4.8h-.12v-17h-5.5v42.69zm22.51-15c.12 4.67-2.34 11.28-8.24 11.28-6.2 0-8.77-6.14-8.77-11.11 0-5.55 2.86-11.22 8.83-11.22s8.3 5.67 8.18 11.05zM68.97 113.86h5.49V84.04h-5.49v29.82zm0-37.36h5.49V71h-5.49v5.5zm15.54 37.39H90V100.1c0-7.25 2.8-12.28 9.06-12.28 4.79.29 6.31 3.68 6.31 10.64v15.43h5.5V96.18c0-8-3.45-12.81-11.17-12.81-4.15 0-8.12 2-9.76 5.44h-.12v-4.73h-5.31v29.81zm35.72 0h5.5V100.1c0-7.25 2.81-12.28 9.06-12.28 4.8.29 6.32 3.68 6.32 10.64v15.43h5.49V96.18c0-8-3.45-12.81-11.16-12.81-4.16 0-8.13 2-9.77 5.44h-.12v-4.73h-5.32v29.81zm33.21-.93a17.22 17.22 0 008.19 1.64c5.32 0 10.41-2.93 10.41-9.3 0-9.53-12.92-7.78-12.92-13.86 0-2.45 2.45-3.62 5.26-3.62a16 16 0 015.78 1.52l.47-4.8a23 23 0 00-6.84-1.17c-5.9 0-10.52 3-10.52 9.18 0 8.36 12.92 7.9 12.92 13.33 0 3.22-3.1 4.27-5.61 4.27a14.68 14.68 0 01-6.84-2.1l-.3 4.91zm61 .93h5.5v-13.56c0-7.48 3.22-12.16 8.13-12.16a8.15 8.15 0 013 .52v-4.91a15.74 15.74 0 00-3.63-.41 9.09 9.09 0 00-7.77 5.32h-.12v-4.61h-5.15v29.81zm49.12-29.81H258v13.79c0 7.25-2.8 12.28-9.06 12.28-4.8-.29-6.32-3.68-6.32-10.64V84.08h-5.49v17.71c0 8 3.45 12.81 11.17 12.81 4.15 0 8.12-2 9.76-5.44h.12v4.73h5.32V84.08zm28.76.46a20.64 20.64 0 00-6.66-1.17c-9.12 0-15.2 6.55-15.2 15.61 0 8.54 6.19 15.62 15.2 15.62a16.8 16.8 0 006.9-1.23l-.41-4.91a11.51 11.51 0 01-5.91 1.69c-7.07 0-9.94-5.84-9.94-11.17 0-5.67 3.45-11.16 9.59-11.16a16.07 16.07 0 016 1.28l.46-4.56zm3.06-47.78h-7.89V26.57L282 28.32v8.44h-6.73v4.45H282v17.42c0 6 3.5 8.65 9.17 8.65a17.24 17.24 0 004.68-.82v-4.67a6.83 6.83 0 01-3.74 1.05c-2.51 0-4.62-1.87-4.62-5.32V41.21h7.89v-4.45zm55.23 0h-7.89V26.57l-5.49 1.75v8.44h-6.73v4.45h6.73v17.42c0 6 3.5 8.65 9.18 8.65a17.24 17.24 0 004.67-.82v-4.67a6.83 6.83 0 01-3.74 1.05c-2.51 0-4.62-1.87-4.62-5.32V41.21h7.89v-4.45zm-86.65-7.43h5.49v-5.5h-5.49v5.5zm-123.47 0h5.49v-5.5h-5.49v5.5zm165.81 2.75h5.5v-5.5h-5.5v5.5zm9.54 0h5.49v-5.5h-5.49v5.5zM94.7 36.88h-5.49v13.79c0 7.25-2.81 12.33-9.07 12.33-4.79-.29-6.31-3.68-6.31-10.64V36.88h-5.5v17.71c0 8 3.45 12.81 11.17 12.81 4.15 0 8.13-2.05 9.76-5.44h.12v4.73h5.32V36.88zm9.36 29.81h5.49V52.9c0-7.25 2.81-12.28 9.06-12.28 4.8.29 6.32 3.68 6.32 10.64v15.43h5.5V49c0-8-3.45-12.81-11.17-12.81-4.15 0-8.13 2-9.77 5.44h-.11v-4.75h-5.32v29.81zm36.42 0H146V36.88h-5.5v29.81zM180 36.88h-5.5l-8.29 24.32h-.12L158 36.88h-6l10.7 29.81h6.55L180 36.88zM208.13 60a17.67 17.67 0 01-9.13 3 9.75 9.75 0 01-9.87-10h21.28c0-9.59-3.22-16.84-13.16-16.84-8.42 0-14 6.26-14 15.09 0 9.7 4.85 16.14 15.44 16.14a22.84 22.84 0 009.41-1.93V60zm-19-11c.41-3.86 2.63-8.3 8-8.3 4.73 0 7.42 3.74 7.42 8.3zm28.65 17.77h5.49V53.13c0-7.48 3.22-12.16 8.13-12.16a8.32 8.32 0 013 .52v-4.91a15.74 15.74 0 00-3.63-.41 9.09 9.09 0 00-7.77 5.32h-.12v-4.61h-5.14v29.81zM238 65.76a17.18 17.18 0 008.18 1.64c5.32 0 10.41-2.93 10.41-9.3 0-9.53-12.92-7.78-12.92-13.86 0-2.45 2.45-3.62 5.26-3.62a16.06 16.06 0 015.79 1.52l.47-4.8a23.11 23.11 0 00-6.85-1.17c-5.9 0-10.52 3-10.52 9.18 0 8.36 12.92 7.9 12.92 13.33 0 3.22-3.1 4.27-5.61 4.27a14.68 14.68 0 01-6.84-2.1l-.29 4.91zm26 .93h5.49V36.88H264v29.81zm40-23a14 14 0 018.65-3c5.5 0 7.37 2.63 7.37 7.77-2.17-.11-3.69-.11-5.85-.11-5.67 0-13.86 2.34-13.86 9.82 0 6.49 4.51 9.3 10.94 9.3a11.09 11.09 0 009.24-4.56h.11v3.85h5.15a45.73 45.73 0 01-.24-5.84V48.51c0-8.13-3.45-12.34-12-12.34a19 19 0 00-9.85 2.83l.3 4.68zm16 11.46c0 4.44-2.87 7.83-8.31 7.83-2.51 0-5.55-1.69-5.55-4.85 0-5.26 7.37-5.73 10.35-5.73 1.17 0 2.34.12 3.51.12v2.63z"/></svg>